<svg width="25" height="22" viewBox="0 0 25 22" fill="none" xmlns="http://www.w3.org/2000/svg">
<path d="M11.3891 21.0351C11.6876 21.3336 12.0889 21.5 12.5098 21.5C12.9258 21.5 13.3369 21.3288 13.6305 21.0351L22.425 12.2407C23.761 10.9046 24.4951 9.1281 24.5 7.24392C24.5 5.35485 23.7659 3.57834 22.4299 2.24229C21.0938 0.906236 19.3222 0.172141 17.4331 0.172141C15.5783 0.172141 13.8312 0.881766 12.5049 2.17377C11.1737 0.876872 9.4217 0.162354 7.56199 0.162354C5.67781 0.162354 3.9062 0.896448 2.57015 2.22761C1.23409 3.56366 0.5 5.34017 0.5 7.22924C0.5 9.11341 1.23899 10.8899 2.57504 12.226L11.3891 21.0351Z" fill="#B91C1C"/>
</svg>
