<svg width="86" height="28" viewBox="0 0 86 28" fill="none" xmlns="http://www.w3.org/2000/svg">
<path d="M14.0625 6.9375V24H9.94922V6.9375H14.0625ZM19.1953 6.9375V10.1133H4.93359V6.9375H19.1953ZM25.0664 22.4531L28.4648 6.9375H30.4922L31.5938 8.26172L27.9727 24H25.7344L25.0664 22.4531ZM24.1641 6.9375L27.0352 22.5703L26.2969 24H23.707L20.0859 6.9375H24.1641ZM33.457 22.4883L36.3047 6.9375H40.3711L36.75 24H34.1719L33.457 22.4883ZM31.957 6.9375L35.4375 22.5469L34.7344 24H32.4961L28.793 8.23828L29.9414 6.9375H31.957ZM46.3594 6.9375V24H42.2578V6.9375H46.3594ZM58.043 19.4648C58.043 19.1992 58.0039 18.9609 57.9258 18.75C57.8477 18.5312 57.7031 18.3281 57.4922 18.1406C57.2812 17.9531 56.9766 17.7656 56.5781 17.5781C56.1875 17.3828 55.6719 17.1797 55.0312 16.9688C54.2812 16.7188 53.5586 16.4375 52.8633 16.125C52.168 15.8047 51.5469 15.4336 51 15.0117C50.4531 14.582 50.0195 14.082 49.6992 13.5117C49.3789 12.9336 49.2188 12.2617 49.2188 11.4961C49.2188 10.7617 49.3828 10.1016 49.7109 9.51562C50.0391 8.92188 50.4961 8.41797 51.082 8.00391C51.6758 7.58203 52.3711 7.26172 53.168 7.04297C53.9648 6.81641 54.8359 6.70312 55.7812 6.70312C57.0312 6.70312 58.1328 6.92188 59.0859 7.35938C60.0469 7.78906 60.7969 8.40234 61.3359 9.19922C61.8828 9.98828 62.1562 10.9219 62.1562 12H58.0664C58.0664 11.5703 57.9766 11.1914 57.7969 10.8633C57.625 10.5352 57.3633 10.2773 57.0117 10.0898C56.6602 9.90234 56.2188 9.80859 55.6875 9.80859C55.1719 9.80859 54.7383 9.88672 54.3867 10.043C54.0352 10.1992 53.7695 10.4102 53.5898 10.6758C53.4102 10.9336 53.3203 11.2188 53.3203 11.5312C53.3203 11.7891 53.3906 12.0234 53.5312 12.2344C53.6797 12.4375 53.8867 12.6289 54.1523 12.8086C54.4258 12.9883 54.7539 13.1602 55.1367 13.3242C55.5273 13.4883 55.9648 13.6484 56.4492 13.8047C57.3555 14.0938 58.1602 14.418 58.8633 14.7773C59.5742 15.1289 60.1719 15.5312 60.6562 15.9844C61.1484 16.4297 61.5195 16.9375 61.7695 17.5078C62.0273 18.0781 62.1562 18.7227 62.1562 19.4414C62.1562 20.207 62.0078 20.8867 61.7109 21.4805C61.4141 22.0742 60.9883 22.5781 60.4336 22.9922C59.8789 23.3984 59.2148 23.707 58.4414 23.918C57.668 24.1289 56.8047 24.2344 55.8516 24.2344C54.9766 24.2344 54.1133 24.125 53.2617 23.9062C52.418 23.6797 51.6523 23.3359 50.9648 22.875C50.2773 22.4062 49.7266 21.8086 49.3125 21.082C48.9062 20.3477 48.7031 19.4766 48.7031 18.4688H52.8281C52.8281 18.9688 52.8945 19.3906 53.0273 19.7344C53.1602 20.0781 53.3555 20.3555 53.6133 20.5664C53.8711 20.7695 54.1875 20.918 54.5625 21.0117C54.9375 21.0977 55.3672 21.1406 55.8516 21.1406C56.375 21.1406 56.7969 21.0664 57.1172 20.918C57.4375 20.7617 57.6719 20.5586 57.8203 20.3086C57.9688 20.0508 58.043 19.7695 58.043 19.4648ZM68.6484 6.9375V24H64.5469V6.9375H68.6484ZM85.9805 15.1289V15.8203C85.9805 17.125 85.7969 18.2969 85.4297 19.3359C85.0703 20.3672 84.5586 21.25 83.8945 21.9844C83.2305 22.7109 82.4453 23.2695 81.5391 23.6602C80.6328 24.043 79.6328 24.2344 78.5391 24.2344C77.4375 24.2344 76.4297 24.043 75.5156 23.6602C74.6094 23.2695 73.8203 22.7109 73.1484 21.9844C72.4844 21.25 71.9688 20.3672 71.6016 19.3359C71.2422 18.2969 71.0625 17.125 71.0625 15.8203V15.1289C71.0625 13.8242 71.2422 12.6523 71.6016 11.6133C71.9688 10.5742 72.4805 9.69141 73.1367 8.96484C73.8008 8.23047 74.5859 7.67188 75.4922 7.28906C76.4062 6.89844 77.4141 6.70312 78.5156 6.70312C79.6094 6.70312 80.6094 6.89844 81.5156 7.28906C82.4297 7.67188 83.2188 8.23047 83.8828 8.96484C84.5469 9.69141 85.0625 10.5742 85.4297 11.6133C85.7969 12.6523 85.9805 13.8242 85.9805 15.1289ZM81.8086 15.8203V15.1055C81.8086 14.2617 81.7344 13.5195 81.5859 12.8789C81.4453 12.2305 81.2344 11.6875 80.9531 11.25C80.6719 10.8125 80.3242 10.4844 79.9102 10.2656C79.5039 10.0391 79.0391 9.92578 78.5156 9.92578C77.9688 9.92578 77.4922 10.0391 77.0859 10.2656C76.6797 10.4844 76.3398 10.8125 76.0664 11.25C75.793 11.6875 75.5859 12.2305 75.4453 12.8789C75.3125 13.5195 75.2461 14.2617 75.2461 15.1055V15.8203C75.2461 16.6562 75.3125 17.3984 75.4453 18.0469C75.5859 18.6875 75.793 19.2305 76.0664 19.6758C76.3477 20.1211 76.6914 20.457 77.0977 20.6836C77.5117 20.9102 77.9922 21.0234 78.5391 21.0234C79.0625 21.0234 79.5273 20.9102 79.9336 20.6836C80.3398 20.457 80.6797 20.1211 80.9531 19.6758C81.2344 19.2305 81.4453 18.6875 81.5859 18.0469C81.7344 17.3984 81.8086 16.6562 81.8086 15.8203Z" fill="url(#paint0_linear_602_1415)"/>
<path d="M10.0625 2.9375V20H5.94922V2.9375H10.0625ZM15.1953 2.9375V6.11328H0.933594V2.9375H15.1953ZM21.0664 18.4531L24.4648 2.9375H26.4922L27.5938 4.26172L23.9727 20H21.7344L21.0664 18.4531ZM20.1641 2.9375L23.0352 18.5703L22.2969 20H19.707L16.0859 2.9375H20.1641ZM29.457 18.4883L32.3047 2.9375H36.3711L32.75 20H30.1719L29.457 18.4883ZM27.957 2.9375L31.4375 18.5469L30.7344 20H28.4961L24.793 4.23828L25.9414 2.9375H27.957ZM42.3594 2.9375V20H38.2578V2.9375H42.3594ZM54.043 15.4648C54.043 15.1992 54.0039 14.9609 53.9258 14.75C53.8477 14.5312 53.7031 14.3281 53.4922 14.1406C53.2812 13.9531 52.9766 13.7656 52.5781 13.5781C52.1875 13.3828 51.6719 13.1797 51.0312 12.9688C50.2812 12.7188 49.5586 12.4375 48.8633 12.125C48.168 11.8047 47.5469 11.4336 47 11.0117C46.4531 10.582 46.0195 10.082 45.6992 9.51172C45.3789 8.93359 45.2188 8.26172 45.2188 7.49609C45.2188 6.76172 45.3828 6.10156 45.7109 5.51562C46.0391 4.92187 46.4961 4.41797 47.082 4.00391C47.6758 3.58203 48.3711 3.26172 49.168 3.04297C49.9648 2.81641 50.8359 2.70312 51.7812 2.70312C53.0312 2.70312 54.1328 2.92188 55.0859 3.35938C56.0469 3.78906 56.7969 4.40234 57.3359 5.19922C57.8828 5.98828 58.1562 6.92188 58.1562 8H54.0664C54.0664 7.57031 53.9766 7.19141 53.7969 6.86328C53.625 6.53516 53.3633 6.27734 53.0117 6.08984C52.6602 5.90234 52.2188 5.80859 51.6875 5.80859C51.1719 5.80859 50.7383 5.88672 50.3867 6.04297C50.0352 6.19922 49.7695 6.41016 49.5898 6.67578C49.4102 6.93359 49.3203 7.21875 49.3203 7.53125C49.3203 7.78906 49.3906 8.02344 49.5312 8.23438C49.6797 8.4375 49.8867 8.62891 50.1523 8.80859C50.4258 8.98828 50.7539 9.16016 51.1367 9.32422C51.5273 9.48828 51.9648 9.64844 52.4492 9.80469C53.3555 10.0938 54.1602 10.418 54.8633 10.7773C55.5742 11.1289 56.1719 11.5312 56.6562 11.9844C57.1484 12.4297 57.5195 12.9375 57.7695 13.5078C58.0273 14.0781 58.1562 14.7227 58.1562 15.4414C58.1562 16.207 58.0078 16.8867 57.7109 17.4805C57.4141 18.0742 56.9883 18.5781 56.4336 18.9922C55.8789 19.3984 55.2148 19.707 54.4414 19.918C53.668 20.1289 52.8047 20.2344 51.8516 20.2344C50.9766 20.2344 50.1133 20.125 49.2617 19.9062C48.418 19.6797 47.6523 19.3359 46.9648 18.875C46.2773 18.4062 45.7266 17.8086 45.3125 17.082C44.9062 16.3477 44.7031 15.4766 44.7031 14.4688H48.8281C48.8281 14.9688 48.8945 15.3906 49.0273 15.7344C49.1602 16.0781 49.3555 16.3555 49.6133 16.5664C49.8711 16.7695 50.1875 16.918 50.5625 17.0117C50.9375 17.0977 51.3672 17.1406 51.8516 17.1406C52.375 17.1406 52.7969 17.0664 53.1172 16.918C53.4375 16.7617 53.6719 16.5586 53.8203 16.3086C53.9688 16.0508 54.043 15.7695 54.043 15.4648ZM64.6484 2.9375V20H60.5469V2.9375H64.6484ZM81.9805 11.1289V11.8203C81.9805 13.125 81.7969 14.2969 81.4297 15.3359C81.0703 16.3672 80.5586 17.25 79.8945 17.9844C79.2305 18.7109 78.4453 19.2695 77.5391 19.6602C76.6328 20.043 75.6328 20.2344 74.5391 20.2344C73.4375 20.2344 72.4297 20.043 71.5156 19.6602C70.6094 19.2695 69.8203 18.7109 69.1484 17.9844C68.4844 17.25 67.9688 16.3672 67.6016 15.3359C67.2422 14.2969 67.0625 13.125 67.0625 11.8203V11.1289C67.0625 9.82422 67.2422 8.65234 67.6016 7.61328C67.9688 6.57422 68.4805 5.69141 69.1367 4.96484C69.8008 4.23047 70.5859 3.67188 71.4922 3.28906C72.4062 2.89844 73.4141 2.70312 74.5156 2.70312C75.6094 2.70312 76.6094 2.89844 77.5156 3.28906C78.4297 3.67188 79.2188 4.23047 79.8828 4.96484C80.5469 5.69141 81.0625 6.57422 81.4297 7.61328C81.7969 8.65234 81.9805 9.82422 81.9805 11.1289ZM77.8086 11.8203V11.1055C77.8086 10.2617 77.7344 9.51953 77.5859 8.87891C77.4453 8.23047 77.2344 7.6875 76.9531 7.25C76.6719 6.8125 76.3242 6.48438 75.9102 6.26562C75.5039 6.03906 75.0391 5.92578 74.5156 5.92578C73.9688 5.92578 73.4922 6.03906 73.0859 6.26562C72.6797 6.48438 72.3398 6.8125 72.0664 7.25C71.793 7.6875 71.5859 8.23047 71.4453 8.87891C71.3125 9.51953 71.2461 10.2617 71.2461 11.1055V11.8203C71.2461 12.6562 71.3125 13.3984 71.4453 14.0469C71.5859 14.6875 71.793 15.2305 72.0664 15.6758C72.3477 16.1211 72.6914 16.457 73.0977 16.6836C73.5117 16.9102 73.9922 17.0234 74.5391 17.0234C75.0625 17.0234 75.5273 16.9102 75.9336 16.6836C76.3398 16.457 76.6797 16.1211 76.9531 15.6758C77.2344 15.2305 77.4453 14.6875 77.5859 14.0469C77.7344 13.3984 77.8086 12.6562 77.8086 11.8203Z" fill="url(#paint1_linear_602_1415)"/>
<path d="M12.0625 4.9375V22H7.94922V4.9375H12.0625ZM17.1953 4.9375V8.11328H2.93359V4.9375H17.1953ZM23.0664 20.4531L26.4648 4.9375H28.4922L29.5938 6.26172L25.9727 22H23.7344L23.0664 20.4531ZM22.1641 4.9375L25.0352 20.5703L24.2969 22H21.707L18.0859 4.9375H22.1641ZM31.457 20.4883L34.3047 4.9375H38.3711L34.75 22H32.1719L31.457 20.4883ZM29.957 4.9375L33.4375 20.5469L32.7344 22H30.4961L26.793 6.23828L27.9414 4.9375H29.957ZM44.3594 4.9375V22H40.2578V4.9375H44.3594ZM56.043 17.4648C56.043 17.1992 56.0039 16.9609 55.9258 16.75C55.8477 16.5312 55.7031 16.3281 55.4922 16.1406C55.2812 15.9531 54.9766 15.7656 54.5781 15.5781C54.1875 15.3828 53.6719 15.1797 53.0312 14.9688C52.2812 14.7188 51.5586 14.4375 50.8633 14.125C50.168 13.8047 49.5469 13.4336 49 13.0117C48.4531 12.582 48.0195 12.082 47.6992 11.5117C47.3789 10.9336 47.2188 10.2617 47.2188 9.49609C47.2188 8.76172 47.3828 8.10156 47.7109 7.51562C48.0391 6.92187 48.4961 6.41797 49.082 6.00391C49.6758 5.58203 50.3711 5.26172 51.168 5.04297C51.9648 4.81641 52.8359 4.70312 53.7812 4.70312C55.0312 4.70312 56.1328 4.92188 57.0859 5.35938C58.0469 5.78906 58.7969 6.40234 59.3359 7.19922C59.8828 7.98828 60.1562 8.92188 60.1562 10H56.0664C56.0664 9.57031 55.9766 9.19141 55.7969 8.86328C55.625 8.53516 55.3633 8.27734 55.0117 8.08984C54.6602 7.90234 54.2188 7.80859 53.6875 7.80859C53.1719 7.80859 52.7383 7.88672 52.3867 8.04297C52.0352 8.19922 51.7695 8.41016 51.5898 8.67578C51.4102 8.93359 51.3203 9.21875 51.3203 9.53125C51.3203 9.78906 51.3906 10.0234 51.5312 10.2344C51.6797 10.4375 51.8867 10.6289 52.1523 10.8086C52.4258 10.9883 52.7539 11.1602 53.1367 11.3242C53.5273 11.4883 53.9648 11.6484 54.4492 11.8047C55.3555 12.0938 56.1602 12.418 56.8633 12.7773C57.5742 13.1289 58.1719 13.5312 58.6562 13.9844C59.1484 14.4297 59.5195 14.9375 59.7695 15.5078C60.0273 16.0781 60.1562 16.7227 60.1562 17.4414C60.1562 18.207 60.0078 18.8867 59.7109 19.4805C59.4141 20.0742 58.9883 20.5781 58.4336 20.9922C57.8789 21.3984 57.2148 21.707 56.4414 21.918C55.668 22.1289 54.8047 22.2344 53.8516 22.2344C52.9766 22.2344 52.1133 22.125 51.2617 21.9062C50.418 21.6797 49.6523 21.3359 48.9648 20.875C48.2773 20.4062 47.7266 19.8086 47.3125 19.082C46.9062 18.3477 46.7031 17.4766 46.7031 16.4688H50.8281C50.8281 16.9688 50.8945 17.3906 51.0273 17.7344C51.1602 18.0781 51.3555 18.3555 51.6133 18.5664C51.8711 18.7695 52.1875 18.918 52.5625 19.0117C52.9375 19.0977 53.3672 19.1406 53.8516 19.1406C54.375 19.1406 54.7969 19.0664 55.1172 18.918C55.4375 18.7617 55.6719 18.5586 55.8203 18.3086C55.9688 18.0508 56.043 17.7695 56.043 17.4648ZM66.6484 4.9375V22H62.5469V4.9375H66.6484ZM83.9805 13.1289V13.8203C83.9805 15.125 83.7969 16.2969 83.4297 17.3359C83.0703 18.3672 82.5586 19.25 81.8945 19.9844C81.2305 20.7109 80.4453 21.2695 79.5391 21.6602C78.6328 22.043 77.6328 22.2344 76.5391 22.2344C75.4375 22.2344 74.4297 22.043 73.5156 21.6602C72.6094 21.2695 71.8203 20.7109 71.1484 19.9844C70.4844 19.25 69.9688 18.3672 69.6016 17.3359C69.2422 16.2969 69.0625 15.125 69.0625 13.8203V13.1289C69.0625 11.8242 69.2422 10.6523 69.6016 9.61328C69.9688 8.57422 70.4805 7.69141 71.1367 6.96484C71.8008 6.23047 72.5859 5.67188 73.4922 5.28906C74.4062 4.89844 75.4141 4.70312 76.5156 4.70312C77.6094 4.70312 78.6094 4.89844 79.5156 5.28906C80.4297 5.67188 81.2188 6.23047 81.8828 6.96484C82.5469 7.69141 83.0625 8.57422 83.4297 9.61328C83.7969 10.6523 83.9805 11.8242 83.9805 13.1289ZM79.8086 13.8203V13.1055C79.8086 12.2617 79.7344 11.5195 79.5859 10.8789C79.4453 10.2305 79.2344 9.6875 78.9531 9.25C78.6719 8.8125 78.3242 8.48438 77.9102 8.26562C77.5039 8.03906 77.0391 7.92578 76.5156 7.92578C75.9688 7.92578 75.4922 8.03906 75.0859 8.26562C74.6797 8.48438 74.3398 8.8125 74.0664 9.25C73.793 9.6875 73.5859 10.2305 73.4453 10.8789C73.3125 11.5195 73.2461 12.2617 73.2461 13.1055V13.8203C73.2461 14.6562 73.3125 15.3984 73.4453 16.0469C73.5859 16.6875 73.793 17.2305 74.0664 17.6758C74.3477 18.1211 74.6914 18.457 75.0977 18.6836C75.5117 18.9102 75.9922 19.0234 76.5391 19.0234C77.0625 19.0234 77.5273 18.9102 77.9336 18.6836C78.3398 18.457 78.6797 18.1211 78.9531 17.6758C79.2344 17.2305 79.4453 16.6875 79.5859 16.0469C79.7344 15.3984 79.8086 14.6562 79.8086 13.8203Z" fill="white"/>
<defs>
<linearGradient id="paint0_linear_602_1415" x1="4.5" y1="2" x2="87.5" y2="30" gradientUnits="userSpaceOnUse">
<stop stop-color="#1A1A2E" stop-opacity="0"/>
<stop offset="1" stop-color="#DE1B3B"/>
</linearGradient>
<linearGradient id="paint1_linear_602_1415" x1="0.5" y1="-2" x2="83.5" y2="26" gradientUnits="userSpaceOnUse">
<stop stop-color="#1D63B8"/>
<stop offset="1" stop-color="#1A1A2E" stop-opacity="0"/>
</linearGradient>
</defs>
</svg>
