<?xml version="1.0" encoding="iso-8859-1"?>
<!-- Generator: Adobe Illustrator 18.0.0, SVG Export Plug-In . SVG Version: 6.00 Build 0)  -->
<!DOCTYPE svg PUBLIC "-//W3C//DTD SVG 1.1//EN" "http://www.w3.org/Graphics/SVG/1.1/DTD/svg11.dtd">
<svg version="1.1" id="Capa_1" xmlns="http://www.w3.org/2000/svg" xmlns:xlink="http://www.w3.org/1999/xlink" x="0px" y="0px"
	 viewBox="0 0 295.71 295.71" style="enable-background:new 0 0 295.71 295.71;" xml:space="preserve">
<g>
	<path d="M226.798,121.366c0-55.884-42.256-101.187-102.059-101.187c-59.805,0-92.854,33.147-113.871,91.592
		C5.222,127.473,0,159.93,0,178.937c0,55.161,33.3,94.209,75.454,94.209c15.913,0,26.328-9.738,34.579-23.71
		c14.16-23.977,34.977-42.947,60.12-54.915C201.746,179.484,226.798,155.18,226.798,121.366z M76.633,63.358
		c12.767,0,23.116,10.35,23.116,23.116s-10.35,23.116-23.116,23.116s-23.116-10.35-23.116-23.116S63.866,63.358,76.633,63.358z
		 M24.03,146.663c0-12.767,10.349-23.116,23.115-23.116c12.768,0,23.116,10.35,23.116,23.116c0,12.767-10.349,23.116-23.116,23.116
		C34.379,169.779,24.03,159.43,24.03,146.663z M96.118,225.42c-7.568,13.83-21.045,21.021-30.1,16.066
		c-9.055-4.955-10.261-20.183-2.692-34.013c7.567-13.828,21.044-21.021,30.101-16.064
		C102.479,196.363,103.685,211.592,96.118,225.42z M124.303,75.57c0-12.767,10.349-23.115,23.116-23.115
		c12.767,0,23.115,10.349,23.115,23.115c0,12.768-10.349,23.116-23.115,23.116C134.651,98.686,124.303,88.338,124.303,75.57z
		 M147.419,140.993c0-12.767,10.349-23.116,23.115-23.116s23.116,10.35,23.116,23.116s-10.35,23.116-23.116,23.116
		S147.419,153.76,147.419,140.993z"/>
	<path d="M293.892,113.631c-0.637-1.749-2.232-2.968-4.087-3.122c-1.855-0.154-3.628,0.786-4.546,2.405
		c-13.87,24.481-35.63,22.403-40.502,31.446c-2.059,3.823-2.759,8.008-2.287,12.016l-1.142-1.142
		c-2.215-2.215-5.806-2.214-8.018-0.001c-2.215,2.215-2.215,5.805-0.001,8.019l1.094,1.094l-91.609,100.218
		c-2.248,2.475-2.301,6.32,0,8.837c2.44,2.67,6.582,2.855,9.252,0.415l100.218-91.608l1.092,1.092
		c1.107,1.107,2.559,1.661,4.01,1.661c1.451,0,2.902-0.554,4.009-1.66c2.215-2.215,2.215-5.805,0.001-8.018l-1.179-1.179
		c7.629,0.645,15.1-3.714,20.395-10.433C288.68,153.409,300.208,130.972,293.892,113.631z"/>
</g>
<g>
</g>
<g>
</g>
<g>
</g>
<g>
</g>
<g>
</g>
<g>
</g>
<g>
</g>
<g>
</g>
<g>
</g>
<g>
</g>
<g>
</g>
<g>
</g>
<g>
</g>
<g>
</g>
<g>
</g>
</svg>
